<svg width="32" height="32" viewBox="0 0 32 32" fill="none" xmlns="http://www.w3.org/2000/svg">
  <rect width="32" height="32" rx="8" fill="url(#gradient)"/>
  
  <!-- Main reward coin/circle -->
  <circle cx="16" cy="16" r="8" fill="white" fill-opacity="0.95"/>
  
  <!-- Inner reward symbol (star) -->
  <path d="M16 8L18.5 13.5L24 13.5L20 17.5L21.5 23L16 20L10.5 23L12 17.5L8 13.5L13.5 13.5L16 8Z" fill="url(#gradient2)"/>
  
  <!-- Small lock icon for security -->
  <circle cx="24" cy="8" r="2.5" fill="url(#gradient3)"/>
  <path d="M23 7H25C25.5523 7 26 7.4477 26 8V9C26 9.5523 25.5523 10 25 10H23C22.4477 10 22 9.5523 22 9V8C22 7.4477 22.4477 7 23 7Z" fill="white"/>
  <circle cx="24" cy="8.5" r="0.5" fill="url(#gradient3)"/>
  
  <!-- Points indicator -->
  <circle cx="8" cy="24" r="2.5" fill="url(#gradient4)"/>
  <text x="8" y="25.5" text-anchor="middle" fill="white" font-size="3" font-weight="bold">P</text>
  
  <defs>
    <linearGradient id="gradient" x1="0" y1="0" x2="32" y2="32" gradientUnits="userSpaceOnUse">
      <stop stop-color="#6366F1"/>
      <stop offset="0.5" stop-color="#8B5CF6"/>
      <stop offset="1" stop-color="#EC4899"/>
    </linearGradient>
    <linearGradient id="gradient2" x1="8" y1="8" x2="24" y2="24" gradientUnits="userSpaceOnUse">
      <stop stop-color="#F59E0B"/>
      <stop offset="1" stop-color="#D97706"/>
    </linearGradient>
    <linearGradient id="gradient3" x1="21.5" y1="5.5" x2="26.5" y2="10.5" gradientUnits="userSpaceOnUse">
      <stop stop-color="#10B981"/>
      <stop offset="1" stop-color="#059669"/>
    </linearGradient>
    <linearGradient id="gradient4" x1="5.5" y1="21.5" x2="10.5" y2="26.5" gradientUnits="userSpaceOnUse">
      <stop stop-color="#EF4444"/>
      <stop offset="1" stop-color="#DC2626"/>
    </linearGradient>
  </defs>
</svg>
